<svg width="188" height="579" viewBox="0 0 188 579" fill="none" xmlns="http://www.w3.org/2000/svg">
<rect x="21.5662" y="0.5" width="161.207" height="113.532" stroke="#0A2A43"/>
<line x1="16.853" y1="3.08105" x2="187.486" y2="3.08105" stroke="#0A2A43" stroke-width="3"/>
<line x1="21.0662" y1="129.566" x2="183.273" y2="129.566" stroke="#0A2A43" stroke-width="2"/>
<line x1="21.0662" y1="166.216" x2="183.273" y2="166.216" stroke="#0A2A43" stroke-width="2"/>
<line x1="21.0662" y1="198.286" x2="183.273" y2="198.286" stroke="#0A2A43" stroke-width="2"/>
<line y1="-2" x2="378.684" y2="-2" transform="matrix(0.166887 0.985976 -0.980556 0.196238 117.969 199.286)" stroke="#0A2A43" stroke-width="4"/>
<line y1="-2" x2="378.693" y2="-2" transform="matrix(-0.166058 0.986116 -0.980749 -0.195274 62.8853 194.704)" stroke="#0A2A43" stroke-width="4"/>
<line y1="-2" x2="379.643" y2="-2" transform="matrix(0.0079736 0.999968 -0.999956 0.00942766 88.4766 199.286)" stroke="#0A2A43" stroke-width="4"/>
<line y1="-0.5" x2="112.247" y2="-0.5" transform="matrix(-0.00284678 0.999996 -0.999995 -0.0030559 36.1165 0)" stroke="#0A2A43"/>
<line y1="-0.5" x2="112.247" y2="-0.5" transform="matrix(-0.00284678 0.999996 -0.999995 -0.0030559 63.5022 0)" stroke="#0A2A43"/>
<line y1="-0.5" x2="112.247" y2="-0.5" transform="matrix(-0.00284678 0.999996 -0.999995 -0.0030559 99.314 0)" stroke="#0A2A43"/>
<line y1="-0.5" x2="112.247" y2="-0.5" transform="matrix(-0.0027125 0.999996 -0.999995 -0.00320718 137.233 2.29053)" stroke="#0A2A43"/>
<line y1="-0.5" x2="112.247" y2="-0.5" transform="matrix(-0.0027125 0.999996 -0.999995 -0.00320718 160.405 2.29053)" stroke="#0A2A43"/>
</svg>
