<svg width="73" height="103" viewBox="0 0 73 103" fill="none" xmlns="http://www.w3.org/2000/svg">
<path d="M26.5 49L6.5 101.5M46.5 49L66.5 101.5M16.5 76.5H56.5M21.5 21.5H11.5V38.5825C11.5 44.8325 16.0475 49 22.8625 49H50.1375C56.9575 49 61.5 44.8325 61.5 38.5825V21.5H51.5M21.5 21.5V6.5C21.5 5.17392 22.0268 3.90215 22.9645 2.96447C23.9021 2.02678 25.1739 1.5 26.5 1.5H46.5C47.8261 1.5 49.0979 2.02678 50.0355 2.96447C50.9732 3.90215 51.5 5.17392 51.5 6.5V21.5M21.5 21.5H1.5M51.5 21.5H71.5" stroke="#0A2A43" stroke-width="3" stroke-linecap="round" stroke-linejoin="round"/>
</svg>
