<svg width="103" height="103" viewBox="0 0 103 103" fill="none" xmlns="http://www.w3.org/2000/svg">
<path d="M43.1665 68.1663V54.833M43.1665 54.833H55.8109C68.5832 54.833 68.5832 34.833 55.8109 34.833H43.1665V54.833Z" stroke="#0A2A43" stroke-width="3" stroke-linecap="round" stroke-linejoin="round"/>
<path d="M101.5 51.5C101.5 58.0661 100.207 64.5679 97.694 70.6342C95.1812 76.7004 91.4983 82.2124 86.8553 86.8553C82.2124 91.4983 76.7004 95.1812 70.6342 97.694C64.5679 100.207 58.0661 101.5 51.5 101.5C44.9339 101.5 38.4321 100.207 32.3658 97.694C26.2995 95.1812 20.7876 91.4983 16.1447 86.8553C11.5017 82.2124 7.81876 76.7004 5.30602 70.6342C2.79329 64.5679 1.5 58.0661 1.5 51.5C1.5 38.2392 6.76784 25.5215 16.1447 16.1447C25.5215 6.76784 38.2392 1.5 51.5 1.5C64.7608 1.5 77.4785 6.76784 86.8553 16.1447C96.2321 25.5215 101.5 38.2392 101.5 51.5Z" stroke="#0A2A43" stroke-width="3" stroke-linecap="round" stroke-linejoin="round"/>
</svg>
