<svg width="890" height="1079" viewBox="0 0 890 1079" fill="none" xmlns="http://www.w3.org/2000/svg">
<path d="M572.863 124.837C628.207 124.837 681.879 135.665 732.41 157.054C781.226 177.707 825.05 207.251 862.704 244.904C900.357 282.557 929.9 326.382 950.554 375.197C971.92 425.728 982.771 479.401 982.771 534.744C982.771 590.088 971.943 643.76 950.554 694.291C929.9 743.107 900.357 786.932 862.704 824.585C825.05 862.238 781.226 891.781 732.41 912.435C681.879 933.801 628.207 944.652 572.863 944.652C517.52 944.652 463.847 933.824 413.316 912.435C364.501 891.781 320.676 862.238 283.023 824.585C245.369 786.932 215.826 743.107 195.173 694.291C173.806 643.76 162.956 590.088 162.956 534.744C162.956 479.401 173.784 425.728 195.173 375.197C215.826 326.382 245.369 282.557 283.023 244.904C320.676 207.251 364.501 177.707 413.316 157.054C463.847 135.687 517.52 124.837 572.863 124.837ZM572.863 122.609C345.251 122.609 160.75 307.132 160.75 534.722C160.75 762.312 345.273 946.835 572.863 946.835C800.453 946.835 984.976 762.312 984.976 534.722C984.976 307.132 800.453 122.609 572.863 122.609Z" fill="#0A2A43"/>
<path d="M262.592 351.491L263.037 714.165C263.037 714.165 320.431 757.121 376.91 714.165V638.747C376.91 638.747 360.98 616.512 321.322 620.411V613.794L823.379 614.083V620.389C823.379 620.389 790.628 614.373 765.385 637.522V714.143C765.385 714.143 814.958 755.896 879.258 713.853V354.21C879.258 354.21 873.554 332.843 817.297 333.378C761.04 333.912 320.854 333.378 320.854 333.378C320.854 333.378 284.538 326.382 262.592 351.514V351.491Z" stroke="#0A2A43" stroke-miterlimit="10"/>
<path d="M384.531 468.416V605.015H377.802V453.11C377.802 453.11 371.675 432.278 336.139 428.602H806.581C806.581 428.602 767.992 434.105 765.541 458.012C763.09 481.918 765.563 602.007 765.563 602.007H756.495L757.008 465.409L384.531 468.416Z" stroke="#0A2A43" stroke-miterlimit="10"/>
<path d="M467.657 625.869H433.725V709.219H467.657V625.869Z" stroke="#0A2A43" stroke-miterlimit="10"/>
<path d="M548.065 625.869H514.133V709.219H548.065V625.869Z" stroke="#0A2A43" stroke-miterlimit="10"/>
<path d="M626.246 625.869H594.52V709.219H626.246V625.869Z" stroke="#0A2A43" stroke-miterlimit="10"/>
<path d="M707.39 625.869H674.928V709.219H707.39V625.869Z" stroke="#0A2A43" stroke-miterlimit="10"/>
</svg>
