<svg width="148" height="148" viewBox="0 0 148 148" fill="none" xmlns="http://www.w3.org/2000/svg">
<path d="M74 0.400065C83.9376 0.400065 93.5752 2.34438 102.649 6.185C111.414 9.8936 119.283 15.1985 126.044 21.9596C132.806 28.7207 138.11 36.5899 141.819 45.3554C145.656 54.4288 147.604 64.0664 147.604 74.004C147.604 83.9416 145.66 93.5792 141.819 102.653C138.11 111.418 132.806 119.287 126.044 126.048C119.283 132.81 111.414 138.114 102.649 141.823C93.5752 145.66 83.9376 147.608 74 147.608C64.0624 147.608 54.4248 145.664 45.3514 141.823C36.5859 138.114 28.7167 132.81 21.9556 126.048C15.1945 119.287 9.8896 111.418 6.181 102.653C2.34438 93.5792 0.396063 83.9416 0.396063 74.004C0.396063 64.0664 2.34038 54.4288 6.181 45.3554C9.8896 36.5899 15.1945 28.7207 21.9556 21.9596C28.7167 15.1985 36.5859 9.8936 45.3514 6.185C54.4248 2.34838 64.0624 0.400065 74 0.400065ZM74 0C33.1294 0 0 33.1334 0 74C0 114.867 33.1334 148 74 148C114.867 148 148 114.867 148 74C148 33.1334 114.867 0 74 0Z" fill="#FAF7F1"/>
<path d="M18.2871 41.0987L18.3671 106.221C18.3671 106.221 28.6728 113.935 38.8144 106.221V92.6791C38.8144 92.6791 35.954 88.6865 28.8328 89.3866V88.1984L118.983 88.2504V89.3826C118.983 89.3826 113.102 88.3024 108.57 92.4591V106.217C108.57 106.217 117.471 113.715 129.017 106.165V41.5868C129.017 41.5868 127.993 37.7502 117.891 37.8462C107.79 37.9422 28.7488 37.8462 28.7488 37.8462C28.7488 37.8462 22.2277 36.59 18.2871 41.1027V41.0987Z" stroke="#FAF7F1" stroke-miterlimit="10"/>
<path d="M40.1826 62.0945V86.6225H38.9744V59.346C38.9744 59.346 37.8742 55.6054 31.4932 54.9453H115.967C115.967 54.9453 109.038 55.9335 108.598 60.2262C108.158 64.5189 108.602 86.0824 108.602 86.0824H106.973L107.065 61.5544L40.1826 62.0945Z" stroke="#FAF7F1" stroke-miterlimit="10"/>
<path d="M55.1096 90.3662H49.0166V105.333H55.1096V90.3662Z" stroke="#FAF7F1" stroke-miterlimit="10"/>
<path d="M69.5471 90.3662H63.4541V105.333H69.5471V90.3662Z" stroke="#FAF7F1" stroke-miterlimit="10"/>
<path d="M83.5856 90.3662H77.8887V105.333H83.5856V90.3662Z" stroke="#FAF7F1" stroke-miterlimit="10"/>
<path d="M98.1561 90.3662H92.3271V105.333H98.1561V90.3662Z" stroke="#FAF7F1" stroke-miterlimit="10"/>
</svg>
